<svg xmlns="http://www.w3.org/2000/svg" width="24" height="24" viewBox="0 0 24 24">
  <g fill="none" fill-rule="evenodd" stroke="#04286E" stroke-width="2" transform="translate(1 1)">
    <path d="M21.8011538 21.7635L17.2860769 21.7635 17.2860769 14.6938846C17.2860769 13.0081346 17.2551923 10.8396538 14.9382115 10.8396538 12.5873846 10.8396538 12.2265 12.6760192 12.2265 14.5720385L12.2265 21.7635 7.71226923 21.7635 7.71226923 7.22615385 12.0456346 7.22615385 12.0456346 9.2125 12.1061346 9.2125C12.7094423 8.06976923 14.1832308 6.86484615 16.3813269 6.86484615 20.9564808 6.86484615 21.8011538 9.87588462 21.8011538 13.7897692L21.8011538 21.7635zM2.62011538 5.23896154C1.17192308 5.23896154 0 4.06513462 0 2.61884615 0 1.17382692 1.17192308 0 2.62011538 0 4.06471154 0 5.23853846 1.17382692 5.23853846 2.61884615 5.23853846 4.06513462 4.06471154 5.23896154 2.62011538 5.23896154z"/>
    <polygon points=".36 21.764 4.878 21.764 4.878 7.226 .36 7.226"/>
  </g>
</svg>
